# xmcd
#
# Track frame offsets:
#	150
#	12645
#	25930
#	35905
#	49105
#	61030
#	72130
#	91855
#	102932
#	115780
#	129205
#	140830
#	152080
#	166180
#	179380
#	190180
#	201280
#	215005
#	224905
#	237655
#	249955
#	261730
#	273505
#	285565
#	304480
#
# Disc length: 4210 seconds
#
# Revision: 1
# Processed by: cddbd v1.5.1PL0 Copyright (c) Steve Scherf et al.
# Submitted via: audiograbber 1.83.01
#
DISCID=86107019
DTITLE=Various Artist - Shades of Country
DYEAR=1900
DGENRE=Country
TTITLE0=Bobby Helms - Fraulein
TTITLE1=BJ Thomas - Raindrops keep falling on my head
TTITLE2=Skeeter Davis - I cant stay mad at you
TTITLE3=Bobby Benton - My Special Angel
TTITLE4=Donna Forgo - The happiest girl in the whole USA
TTITLE5=Hank Locklin - Send me the pillow that you dream on
TTITLE6=Marty Robbin - El Paso
TTITLE7=Guy Mitchell - Singing the Blues
TTITLE8=Johnnie Ray - Just walking in the rain
TTITLE9=Gogi Grant - The Wayward Wind
TTITLE10=Kenny Rogers - Poem for my little lady
TTITLE11=Roger Miller - King of the Road
TTITLE12=BJ Thomas - I just cant help believing
TTITLE13=Stu Steven - Love me Tender
TTITLE14=Lynn Anderson - Silver Threads and Golden Needles
TTITLE15=Johnny Russell - Blue Eyes Cryin' In The Rain
TTITLE16=BT Jones - Green Green Grass of Home
TTITLE17=Ned Miller - From a Jack to a King
TTITLE18=Kitty Wells - Makin' Believe
TTITLE19=Pat Boone - April Love
TTITLE20=Pat Boone - I almost lost my mind
TTITLE21=Wood Bros - Stranger Things Have Happened
TTITLE22=Jerry Butler - Moon River
TTITLE23=BJ Thomas - Rock'n'Roll Lullaby
TTITLE24=Faron Young - Country Girl
EXTD=SNS Production (some local company)
EXTT0=
EXTT1=
EXTT2=
EXTT3=
EXTT4=
EXTT5=
EXTT6=
EXTT7=
EXTT8=
EXTT9=
EXTT10=
EXTT11=
EXTT12=
EXTT13=
EXTT14=
EXTT15=
EXTT16=
EXTT17=
EXTT18=
EXTT19=
EXTT20=
EXTT21=
EXTT22=
EXTT23=
EXTT24=
PLAYORDER=
